<?xml version="1.0" encoding="UTF-8"?>
<svg id="Regular-Expression--Streamline-Sharp-Material" xmlns="http://www.w3.org/2000/svg" version="1.1" viewBox="0 0 24 24">
  <!-- Generator: Adobe Illustrator 30.2.1, SVG Export Plug-In . SVG Version: 2.1.1 Build 1)  -->
  <defs>
    <style>
      .st0 {
        fill: #fff;
      }
    </style>
  </defs>
  <rect width="24" height="24" rx="7.31" ry="7.31"/>
  <g>
    <path class="st0" d="M4.85,19.82c-.65,0-1.17-.2-1.58-.58-.41-.39-.61-.91-.61-1.55s.2-1.17.61-1.58c.41-.41.93-.61,1.58-.61s1.17.2,1.58.61c.41.41.61.93.61,1.58s-.2,1.16-.61,1.55c-.41.39-.93.58-1.58.58Z"/>
    <path class="st0" d="M11.75,17.07l-1.89-1.32,1.69-2.38c.48-.7,1.08-1.37,1.81-2.04-.45-.07-.89-.15-1.34-.26s-.84-.22-1.17-.34l-2.73-1.02.8-2.16,2.73,1.02c.31.1.67.25,1.08.45.41.2.79.41,1.16.65-.2-.86-.3-1.67-.3-2.43v-3.05h2.31l-.02,3.05c.01.78-.08,1.59-.3,2.43.36-.23.75-.44,1.15-.63.41-.19.77-.34,1.08-.46l2.76-1.02.77,2.16-2.73,1.02c-.33.12-.72.23-1.17.34s-.9.19-1.34.26c.33.3.66.63.99,1.01s.61.72.85,1.03l1.66,2.38-1.89,1.32-1.69-2.38c-.22-.31-.44-.69-.67-1.12s-.44-.85-.62-1.27c-.18.41-.39.84-.62,1.27-.23.43-.46.8-.67,1.12l-1.69,2.38Z"/>
  </g>
</svg>